<?xml version="1.0" encoding="UTF-8"?>
<svg width="36px" height="36px" viewBox="0 0 36 36" version="1.1" xmlns="http://www.w3.org/2000/svg" xmlns:xlink="http://www.w3.org/1999/xlink">
    <!-- Generator: Sketch 53.2 (72643) - https://sketchapp.com -->
    <title>close-light</title>
    <desc>Created with Sketch.</desc>
    <g id="UI---Escritorio" stroke="none" stroke-width="1" fill="none" fill-rule="evenodd">
        <g id="buscar-1" transform="translate(-1204.000000, -40.000000)" fill="#FFFFFF" fill-rule="nonzero">
            <path d="M1224.05651,58.0000077 L1239.57405,73.5174802 C1240.14189,74.0853934 1240.14189,75.0061343 1239.57412,75.5741178 C1239.29027,75.8580393 1238.91803,76 1238.54587,76 C1238.1737,76 1237.80147,75.8580393 1237.51755,75.5740475 L1221.99999,60.0565234 L1206.48258,75.5739069 C1206.19859,75.857969 1205.82642,75.9999297 1205.45426,75.9999297 C1205.08209,75.9999297 1204.70986,75.8580393 1204.42594,75.5739772 C1203.85802,75.006064 1203.85802,74.0853231 1204.42594,73.5174099 L1219.94344,57.9999725 L1204.42594,42.4825022 C1203.85802,41.914589 1203.85802,40.9938482 1204.42594,40.4260052 C1204.99378,39.858092 1205.91459,39.858092 1206.48244,40.4260052 L1221.99996,55.9434613 L1237.51755,40.4259349 C1238.08546,39.8580217 1239.0062,39.8580217 1239.57412,40.4259349 C1240.14196,40.9938482 1240.14196,41.914589 1239.57412,42.4824319 L1224.05651,58.0000077 Z" id="close-light"></path>
        </g>
    </g>
</svg>