<svg xmlns="http://www.w3.org/2000/svg" width="129" height="29" viewBox="0 0 129 29">
    <g fill="none" fill-rule="evenodd">
        <path fill="#575756" d="M5.41 19.365a1.994 1.994 0 0 0-1.865-1.184 1.716 1.716 0 0 0-1.775 1.681c0 .93.958 1.355 1.686 1.687l.716.313c1.403.592 2.593 1.314 2.593 3.03a3.403 3.403 0 0 1-6.753.54l1.184-.326a2.213 2.213 0 0 0 2.154 2 2.172 2.172 0 0 0 2.22-2.095c0-1.267-.99-1.693-1.995-2.154l-.657-.278C1.663 21.987.58 21.359.58 19.815c0-1.67 1.414-2.746 3.018-2.746a3.083 3.083 0 0 1 2.782 1.674l-.97.622z"/>
        <path fill="#575756" fill-rule="nonzero" d="M26.16 22.667a5.617 5.617 0 1 1-5.617-5.593 5.587 5.587 0 0 1 5.616 5.593zm-10.062 0a4.421 4.421 0 1 0 4.415-4.462 4.457 4.457 0 0 0-4.385 4.445l-.03.017z"/>
        <path fill="#575756" d="M42.98 19.62a4.61 4.61 0 0 0-3.291-1.433 4.462 4.462 0 0 0 .035 8.925 4.735 4.735 0 0 0 3.255-1.426v1.485a5.534 5.534 0 0 1-3.22 1.06 5.581 5.581 0 1 1 0-11.157 5.22 5.22 0 0 1 3.22 1.06v1.485z"/>
        <path fill="#575756" fill-rule="nonzero" d="M62.664 22.667a5.622 5.622 0 1 1-5.617-5.593 5.587 5.587 0 0 1 5.617 5.593zm-10.062 0a4.421 4.421 0 1 0 4.421-4.462 4.462 4.462 0 0 0-4.397 4.445l-.024.017z"/>
        <path fill="#575756" d="M75.311 25.484l3.084-8.226h1.296l-4.38 11.428-4.368-11.428h1.297zM88.764 17.258h5.587v1.113h-4.404v3.207h4.256v1.119h-4.256v4.226h4.386v1.118h-5.57zM108.886 19.365a1.983 1.983 0 0 0-1.858-1.184 1.722 1.722 0 0 0-1.776 1.681c0 .93.959 1.355 1.693 1.687l.716.313c1.403.592 2.586 1.314 2.586 3.03a3.403 3.403 0 0 1-6.753.54l1.184-.326a2.225 2.225 0 0 0 2.166 2 2.166 2.166 0 0 0 2.214-2.095c0-1.267-.983-1.693-1.989-2.154l-.657-.278c-1.26-.592-2.367-1.22-2.367-2.764 0-1.67 1.414-2.746 3.012-2.746a3.095 3.095 0 0 1 2.794 1.674l-.965.622z"/>
        <path fill="#575756" fill-rule="nonzero" d="M121.498 24.987l-1.296 3.06h-1.32l4.978-11.292 4.847 11.292h-1.326l-1.278-3.06h-4.605zm2.332-5.433l-1.84 4.32h3.645l-1.805-4.32z"/>
        <path fill="#14385C" d="M.201.473H6.18v1.273H1.586v3.119h4.457V6.13H1.586v4.208H6.18v1.273H.2zM12.736 4.273l-1.302 7.357H9.996L12.275.024l3.829 8.77L19.92.025 22.2 11.63h-1.432l-1.326-7.357h-.03l-3.332 7.593z"/>
        <path fill="#14385C" fill-rule="nonzero" d="M27.757 11.606h-1.379V.473h1.592c3.427 0 4.486 1.184 4.486 3.214 0 2.367-1.775 3.255-3.894 3.255h-.805v4.664zm0-5.918h.45c1.42 0 2.96-.267 2.96-2.036 0-1.77-1.652-1.953-3.031-1.953h-.373l-.006 3.989zM43.565 11.606h-1.68L38.61 6.87h-.591v4.735h-1.391V.473h1.687a5.871 5.871 0 0 1 2.959.515 3.095 3.095 0 0 1 1.456 2.658 3.024 3.024 0 0 1-2.664 3.119l3.498 4.84zm-5.534-5.86h.427c1.42 0 2.959-.266 2.959-2.041 0-1.776-1.657-1.995-3.03-1.995h-.367l.011 4.037z"/>
        <path fill="#14385C" d="M47.62.473h5.983v1.273H49.01v3.119h4.462V6.13H49.01v4.208h4.593v1.273h-5.984zM63.226 2.58A1.918 1.918 0 0 0 61.45 1.54c-.887 0-1.864.592-1.864 1.58 0 .864.858 1.32 1.557 1.586l.799.314C63.528 5.64 64.7 6.51 64.7 8.374a3.427 3.427 0 0 1-3.551 3.469 3.468 3.468 0 0 1-3.439-3.12l1.397-.295a2.107 2.107 0 1 0 4.208-.054c0-1.183-.96-1.716-1.912-2.118l-.77-.32c-1.278-.55-2.426-1.266-2.426-2.817 0-1.805 1.598-2.882 3.285-2.882a3.184 3.184 0 0 1 2.864 1.68l-1.13.663z"/>
        <path fill="#14385C" fill-rule="nonzero" d="M70.748 8.818l-1.278 2.788h-1.492L73.305 0l5.326 11.606H77.14l-1.278-2.788h-5.114zm2.545-5.776l-1.97 4.504h3.953l-1.983-4.504z"/>
        <path fill="#14385C" d="M87.456 2.58A1.93 1.93 0 0 0 85.68 1.54c-.882 0-1.858.592-1.858 1.58 0 .864.858 1.32 1.55 1.586l.788.314c1.586.621 2.763 1.491 2.763 3.355a3.42 3.42 0 0 1-3.55 3.469 3.48 3.48 0 0 1-3.445-3.12l1.403-.295a2.107 2.107 0 1 0 4.208-.054c0-1.183-.953-1.716-1.918-2.118l-.763-.32c-1.273-.55-2.427-1.266-2.427-2.817 0-1.805 1.598-2.882 3.279-2.882a3.178 3.178 0 0 1 2.864 1.68l-1.118.663z"/>
        <path fill="#8CA5B9" d="M99.162.308v11.191h-3.675V.308z"/>
        <path fill="#6589A1" d="M106.519.308v11.191h-3.67V.308z"/>
        <path fill="#416C8C" d="M113.863.308v11.191h-3.669V.308z"/>
        <path fill="#194F74" d="M121.208.308v11.191h-3.67V.308z"/>
        <path fill="#113B60" d="M128.559.308v11.191h-3.664V.308z"/>
    </g>
</svg>
