<svg xmlns="http://www.w3.org/2000/svg" width="21" height="22" viewBox="0 0 21 22">
    <path  fill-rule="evenodd" d="M17.138 13.46a3.834 3.834 0 0 0-3.014 1.48L7.57 11.588c.086-.32.147-.65.147-.999 0-.379-.073-.735-.175-1.082l6.525-3.337a3.834 3.834 0 0 0 3.072 1.547 3.858 3.858 0 1 0 0-7.717 3.859 3.859 0 0 0-3.857 3.858c0 .349.061.68.148 1.001L6.877 8.211a3.842 3.842 0 0 0-3.02-1.482A3.858 3.858 0 0 0 0 10.59a3.857 3.857 0 0 0 3.858 3.859c1.262 0 2.37-.613 3.076-1.55l6.522 3.337a3.812 3.812 0 0 0-.176 1.086 3.859 3.859 0 0 0 7.718 0 3.856 3.856 0 0 0-3.86-3.86z"/>
</svg>
