<?xml version="1.0" encoding="UTF-8"?>
<svg width="20px" height="21px" viewBox="0 0 20 21" version="1.1" xmlns="http://www.w3.org/2000/svg" xmlns:xlink="http://www.w3.org/1999/xlink">
    <!-- Generator: sketchtool 53.2 (72643) - https://sketchapp.com -->
    <title>6C657F28-9125-4583-8A6C-88D5A7CCA8D8</title>
    <desc>Created with sketchtool.</desc>
    <g id="Symbols" stroke="none" stroke-width="1" fill="none" fill-rule="evenodd">
        <g id="header-auxiliar" transform="translate(-355.000000, -163.000000)" fill="#FFFFFF" fill-rule="nonzero">
            <g id="Top-Header">
                <g transform="translate(246.000000, 20.000000)">
                    <path d="M124.034688,152.572062 C124.141,152.807 124.101625,153.082625 123.931,153.275563 L119.33725,158.525563 C119.212563,158.667313 119.03275,158.75 118.84375,158.75 C118.65475,158.75 118.474937,158.668625 118.35025,158.525563 L113.7565,153.275563 C113.587187,153.081312 113.545187,152.807 113.652812,152.572062 C113.759125,152.338437 113.99275,152.1875 114.25,152.1875 L116.875,152.1875 L116.875,143.65625 C116.875,143.294 117.169,143 117.53125,143 L120.15625,143 C120.5185,143 120.8125,143.294 120.8125,143.65625 L120.8125,152.1875 L123.4375,152.1875 C123.69475,152.1875 123.928375,152.337125 124.034688,152.572062 Z M126.0625,157.4375 L128.6875,157.4375 L128.6875,162.6875 C128.6875,163.413312 128.100812,164 127.375,164 L110.3125,164 C109.588,164 109,163.413312 109,162.6875 L109,157.4375 L111.625,157.4375 L111.625,161.375 L126.0625,161.375 L126.0625,157.4375 Z" id="Combined-Shape"></path>
                </g>
            </g>
        </g>
    </g>
</svg>