<?xml version="1.0" encoding="UTF-8"?>
<svg width="94px" height="90px" viewBox="0 0 94 90" version="1.1" xmlns="http://www.w3.org/2000/svg" xmlns:xlink="http://www.w3.org/1999/xlink">
    <!-- Generator: sketchtool 53.2 (72643) - https://sketchapp.com -->
    <title>903949FA-F73A-4382-B156-0C78963C279A</title>
    <desc>Created with sketchtool.</desc>
    <g id="UI---Escritorio" stroke="none" stroke-width="1" fill="none" fill-rule="evenodd">
        <g id="Carta-del-Gerente-General" transform="translate(-80.000000, -1628.000000)" fill="#EEF7FA" fill-rule="nonzero">
            <g id="estimados-accionistas" transform="translate(80.000000, 868.000000)">
                <g id="Group" transform="translate(0.000000, 760.000000)">
                    <path d="M21.8135466,41.5215494 L21.8135466,49.1187563 L40.7174722,49.1187563 L40.7174722,90 L0,90 L0,49.1187563 L0.000984143769,49.1187563 L0.000984143769,41.5215494 C0.000984143769,26.0944319 4.42175795,14.639087 13.1412717,7.47171489 C19.1730889,2.51379259 26.8080763,0 35.8346429,0 L35.8346429,21.899837 C30.9345911,21.899837 21.8135466,21.899837 21.8135466,41.5215494 Z M89.1176628,21.899837 L89.1176628,0 C80.0915882,0 72.4566008,2.51379259 66.4247837,7.47171489 C57.7052699,14.639087 53.284004,26.094926 53.284004,41.5215494 L53.284004,49.1187563 L53.284004,49.1187563 L53.284004,90 L94,90 L94,49.1187563 L75.0960744,49.1187563 L75.0960744,41.5215494 C75.0965665,21.899837 84.2176109,21.899837 89.1176628,21.899837 Z" id="quote"></path>
                </g>
            </g>
        </g>
    </g>
</svg>