
<svg width="21px" height="22px" viewBox="0 0 21 22" version="1.1" xmlns="http://www.w3.org/2000/svg" xmlns:xlink="http://www.w3.org/1999/xlink">
    <!-- Generator: Sketch 51.3 (57544) - http://www.bohemiancoding.com/sketch -->
    <desc>Created with Sketch.</desc>
    <defs></defs>
    <g id="final" stroke="none" stroke-width="1" fill="none" fill-rule="evenodd">
        <g id="Inicio---Pensar-en-el-futuro" transform="translate(-1097.000000, -151.000000)" fill="#212121">
            <g id="Sidebar" transform="translate(990.000000, 0.000000)">
                <path d="M124.138373,164.460818 C122.912208,164.460818 121.830656,165.044986 121.124041,165.939562 L114.570017,162.587831 C114.655819,162.267816 114.71749,161.937166 114.71749,161.589176 C114.71749,161.210351 114.644245,160.853692 114.542042,160.506641 L121.067152,157.170372 C121.769879,158.105435 122.879407,158.716596 124.139311,158.716596 C126.273547,158.716596 128,156.990143 128,154.857829 C128.000045,152.727436 126.273547,151 124.139356,151 C122.009946,151 120.281572,152.727436 120.281572,154.857784 C120.281572,155.206757 120.343287,155.538346 120.430027,155.859344 L113.876943,159.211075 C113.169389,158.315561 112.08587,157.72947 110.857784,157.72947 C108.72547,157.72947 107,159.457845 107,161.589176 C107,163.720507 108.725514,165.447943 110.857784,165.447943 C112.11961,165.447943 113.228199,164.834861 113.933786,163.898859 L120.455991,167.235128 C120.353789,167.581196 120.279606,167.94076 120.279606,168.320568 C120.279606,170.451899 122.00798,172.179335 124.13739,172.179335 C126.271626,172.179335 127.998078,170.451899 127.998078,168.320568 C127.999062,166.187315 126.272609,164.460818 124.138373,164.460818 Z" id="icono-compartir"></path>
            </g>
        </g>
    </g>
</svg>