<svg id="Layer_1" data-name="Layer 1" xmlns="http://www.w3.org/2000/svg" viewBox="0 0 217.47 48.47"><defs><style>.cls-1{fill:#575756;}.cls-2{fill:#14385c;}.cls-3{fill:#8ca5b9;}.cls-4{fill:#6589a1;}.cls-5{fill:#416c8c;}.cls-6{fill:#194f74;}.cls-7{fill:#113b60;}</style></defs><title>empresas-socovesa-logo</title><path class="cls-1" d="M296.16,519.5a3.37,3.37,0,0,0-3.15-2,2.9,2.9,0,0,0-3,2.84c0,1.57,1.62,2.29,2.85,2.85l1.21.53c2.37,1,4.38,2.22,4.38,5.12a5.75,5.75,0,0,1-11.41.91l2-.55a3.74,3.74,0,0,0,3.64,3.38,3.67,3.67,0,0,0,3.75-3.54c0-2.14-1.67-2.86-3.37-3.64l-1.11-.47c-2.12-1-3.95-2.06-3.95-4.67,0-2.82,2.39-4.64,5.1-4.64a5.21,5.21,0,0,1,4.7,2.83Z" transform="translate(-287.02 -486.78)"/><path class="cls-1" d="M331.22,525.08a9.49,9.49,0,1,1-9.49-9.45A9.44,9.44,0,0,1,331.22,525.08Zm-17,0a7.47,7.47,0,1,0,7.46-7.54A7.53,7.53,0,0,0,314.27,525.05Z" transform="translate(-287.02 -486.78)"/><path class="cls-1" d="M359.64,519.93a7.79,7.79,0,0,0-5.56-2.42,7.54,7.54,0,0,0,.06,15.08,8,8,0,0,0,5.5-2.41v2.51a9.35,9.35,0,0,1-5.44,1.79,9.43,9.43,0,1,1,0-18.85,8.82,8.82,0,0,1,5.44,1.79Z" transform="translate(-287.02 -486.78)"/><path class="cls-1" d="M392.9,525.08a9.5,9.5,0,1,1-9.49-9.45A9.44,9.44,0,0,1,392.9,525.08Zm-17,0a7.47,7.47,0,1,0,7.47-7.54A7.54,7.54,0,0,0,375.94,525.05Z" transform="translate(-287.02 -486.78)"/><path class="cls-1" d="M414.27,529.84l5.21-13.9h2.19l-7.4,19.31-7.38-19.31h2.19Z" transform="translate(-287.02 -486.78)"/><path class="cls-1" d="M437,515.94h9.44v1.88H439v5.42h7.19v1.89H439v7.14h7.41v1.89H437Z" transform="translate(-287.02 -486.78)"/><path class="cls-1" d="M471,519.5a3.35,3.35,0,0,0-3.14-2,2.91,2.91,0,0,0-3,2.84c0,1.57,1.62,2.29,2.86,2.85l1.21.53c2.37,1,4.37,2.22,4.37,5.12a5.75,5.75,0,0,1-11.41.91l2-.55a3.76,3.76,0,0,0,3.66,3.38,3.66,3.66,0,0,0,3.74-3.54c0-2.14-1.66-2.86-3.36-3.64l-1.11-.47c-2.13-1-4-2.06-4-4.67,0-2.82,2.39-4.64,5.09-4.64a5.23,5.23,0,0,1,4.72,2.83Z" transform="translate(-287.02 -486.78)"/><path class="cls-1" d="M492.31,529l-2.19,5.17h-2.23l8.41-19.08,8.19,19.08h-2.24L500.09,529Zm3.94-9.18-3.11,7.3h6.16Z" transform="translate(-287.02 -486.78)"/><path class="cls-2" d="M287.36,487.58h10.1v2.15H289.7V495h7.53v2.14H289.7v7.11h7.76v2.15h-10.1Z" transform="translate(-287.02 -486.78)"/><path class="cls-2" d="M308.54,494h0l-2.2,12.43h-2.43l3.85-19.61,6.47,14.82,6.45-14.82,3.85,19.61h-2.42L319.87,494h-.05l-5.63,12.83Z" transform="translate(-287.02 -486.78)"/><path class="cls-2" d="M333.92,506.39h-2.33V487.58h2.69c5.79,0,7.58,2,7.58,5.43,0,4-3,5.5-6.58,5.5h-1.36Zm0-10h.76c2.4,0,5-.45,5-3.44s-2.79-3.3-5.12-3.3h-.63Z" transform="translate(-287.02 -486.78)"/><path class="cls-2" d="M360.63,506.39h-2.84l-5.53-8h-1v8h-2.35V487.58h2.85a9.92,9.92,0,0,1,5,.87,5.23,5.23,0,0,1,2.46,4.49,5.11,5.11,0,0,1-4.5,5.27Zm-9.35-9.9H352c2.4,0,5-.45,5-3.45s-2.8-3.37-5.12-3.37h-.62Z" transform="translate(-287.02 -486.78)"/><path class="cls-2" d="M367.48,487.58h10.11v2.15h-7.76V495h7.54v2.14h-7.54v7.11h7.76v2.15H367.48Z" transform="translate(-287.02 -486.78)"/><path class="cls-2" d="M393.85,491.14a3.24,3.24,0,0,0-3-1.76c-1.5,0-3.15,1-3.15,2.67,0,1.46,1.45,2.23,2.63,2.68l1.35.53c2.68,1.05,4.66,2.52,4.66,5.67a5.79,5.79,0,0,1-6,5.86,5.86,5.86,0,0,1-5.81-5.27l2.36-.5a3.56,3.56,0,1,0,7.11-.09c0-2-1.62-2.9-3.23-3.58l-1.3-.54c-2.16-.93-4.1-2.14-4.1-4.76,0-3.05,2.7-4.87,5.55-4.87a5.38,5.38,0,0,1,4.84,2.84Z" transform="translate(-287.02 -486.78)"/><path class="cls-2" d="M406.56,501.68l-2.16,4.71h-2.52l9-19.61,9,19.61h-2.52l-2.16-4.71Zm4.3-9.76-3.33,7.61h6.68Z" transform="translate(-287.02 -486.78)"/><path class="cls-2" d="M434.79,491.14a3.26,3.26,0,0,0-3-1.76c-1.49,0-3.14,1-3.14,2.67,0,1.46,1.45,2.23,2.62,2.68l1.33.53c2.68,1.05,4.67,2.52,4.67,5.67a5.78,5.78,0,0,1-6,5.86,5.88,5.88,0,0,1-5.82-5.27l2.37-.5a3.56,3.56,0,1,0,7.11-.09c0-2-1.61-2.9-3.24-3.58l-1.29-.54c-2.15-.93-4.1-2.14-4.1-4.76,0-3.05,2.7-4.87,5.54-4.87a5.37,5.37,0,0,1,4.84,2.84Z" transform="translate(-287.02 -486.78)"/><path class="cls-3" d="M454.57,487.3v18.91h-6.21V487.3Z" transform="translate(-287.02 -486.78)"/><path class="cls-4" d="M467,487.3v18.91h-6.2V487.3Z" transform="translate(-287.02 -486.78)"/><path class="cls-5" d="M479.41,487.3v18.91h-6.2V487.3Z" transform="translate(-287.02 -486.78)"/><path class="cls-6" d="M491.82,487.3v18.91h-6.2V487.3Z" transform="translate(-287.02 -486.78)"/><path class="cls-7" d="M504.24,487.3v18.91h-6.19V487.3Z" transform="translate(-287.02 -486.78)"/></svg>