
<svg width="21px" height="22px" viewBox="0 0 21 22" version="1.1" xmlns="http://www.w3.org/2000/svg" xmlns:xlink="http://www.w3.org/1999/xlink">
    <!-- Generator: Sketch 51.3 (57544) - http://www.bohemiancoding.com/sketch -->
    <desc>Created with Sketch.</desc>
    <defs></defs>
    <g id="final" stroke="none" stroke-width="1" fill="none" fill-rule="evenodd">
        <g id="Inicio---Pensar-en-el-futuro" transform="translate(-1097.000000, -105.000000)" fill="#212121" fill-rule="nonzero">
            <g id="Sidebar" transform="translate(990.000000, 0.000000)">
                <path d="M127.680709,124.89278 L122.50385,119.486645 C123.834911,117.897891 124.564207,115.898914 124.564207,113.817891 C124.564207,108.955783 120.624479,105 115.782104,105 C110.939728,105 107,108.955783 107,113.817891 C107,118.68 110.939728,122.635783 115.782104,122.635783 C117.599999,122.635783 119.332365,122.08524 120.813485,121.040128 L126.029673,126.487284 C126.247699,126.714633 126.540944,126.84 126.855191,126.84 C127.152637,126.84 127.43481,126.726134 127.649017,126.519105 C128.104159,126.079361 128.118668,125.35016 127.680709,124.89278 Z M115.782104,107.300319 C119.361384,107.300319 122.273224,110.224026 122.273224,113.817891 C122.273224,117.411757 119.361384,120.335463 115.782104,120.335463 C112.202824,120.335463 109.290984,117.411757 109.290984,113.817891 C109.290984,110.224026 112.202824,107.300319 115.782104,107.300319 Z" id="icono-buscar"></path>
            </g>
        </g>
    </g>
</svg>