<svg xmlns="http://www.w3.org/2000/svg" width="21" height="22" viewBox="0 0 21 22">
    <path fill="#212121" fill-rule="nonzero" d="M20.68 19.893l-5.176-5.406a8.811 8.811 0 0 0 2.06-5.67C17.564 3.957 13.624 0 8.782 0 3.94 0 0 3.956 0 8.818s3.94 8.818 8.782 8.818c1.818 0 3.55-.55 5.031-1.596l5.217 5.447c.218.228.51.353.825.353.298 0 .58-.114.794-.32.455-.44.47-1.17.032-1.627zM8.783 2.3c3.58 0 6.491 2.924 6.491 6.518s-2.912 6.517-6.49 6.517c-3.58 0-6.492-2.923-6.492-6.517 0-3.594 2.912-6.518 6.491-6.518z"/>
</svg>
