<svg xmlns="http://www.w3.org/2000/svg" width="18" height="24" viewBox="0 0 18 24">
    <path fill="#000" fill-rule="nonzero" d="M8.523 12.007a4.463 4.463 0 0 1-.086-2.203c.388 0 .345 1.714.086 2.203zm0 2.203a21.466 21.466 0 0 1-1.339 2.88 18.054 18.054 0 0 1 2.894-.965A5.99 5.99 0 0 1 8.45 14.21h.072zm-4.492 5.86s.62-.26 1.641-1.886a6.22 6.22 0 0 0-1.64 1.886zM11.618 7.5h6.378v15.376c0 .62-.502 1.123-1.123 1.123H1.123C.503 24 0 23.497 0 22.877V1.123C0 .503.503 0 1.123 0h9.372v6.378c0 .62.503 1.123 1.123 1.123zm-.374 8.048a4.737 4.737 0 0 1-2.001-2.52 6.58 6.58 0 0 0 .288-2.951 1.166 1.166 0 0 0-2.232-.317 7.933 7.933 0 0 0 .375 3.6 42.572 42.572 0 0 1-1.915 3.916c-1.267.647-3.455 2.087-2.563 3.181a1.44 1.44 0 0 0 1.008.475c.85 0 1.684-.849 2.88-2.879a27.44 27.44 0 0 1 3.7-1.094c.92.53 1.949.844 3.008.921a1.21 1.21 0 0 0 .907-2.044c-.647-.59-2.548-.403-3.455-.288zm6.421-10.625L13.073.33a1.08 1.08 0 0 0-.792-.33h-.288v6.003h6.003v-.245a1.08 1.08 0 0 0-.33-.835zm-3.47 11.964c.188-.13-.115-.562-2-.418 1.727.807 2 .418 2 .418z"/>
</svg>
